<svg width="174" height="40" viewBox="0 0 174 40" fill="none" xmlns="http://www.w3.org/2000/svg">
<path d="M14.9062 21.6406C14.4141 20.7617 13.7871 20.1172 13.0254 19.707C12.2754 19.2969 11.4023 19.0918 10.4062 19.0918C9.64453 19.0918 8.92969 19.25 8.26172 19.5664C7.59375 19.8828 7.00781 20.334 6.50391 20.9199C6.01172 21.5059 5.61914 22.2207 5.32617 23.0645C5.04492 23.8965 4.9043 24.8281 4.9043 25.8594C4.9043 26.8789 5.04492 27.7988 5.32617 28.6191C5.61914 29.4395 6.01758 30.1426 6.52148 30.7285C7.02539 31.3027 7.60547 31.748 8.26172 32.0645C8.92969 32.3691 9.64453 32.5215 10.4062 32.5215C11.5312 32.5215 12.5098 32.252 13.3418 31.7129C14.1738 31.1621 14.8359 30.3594 15.3281 29.3047L18.0352 30.6406C17.6836 31.3906 17.25 32.0645 16.7344 32.6621C16.2188 33.2598 15.6328 33.7695 14.9766 34.1914C14.332 34.6133 13.6172 34.9355 12.832 35.1582C12.0586 35.3926 11.2383 35.5098 10.3711 35.5098C9.10547 35.5098 7.93359 35.2754 6.85547 34.8066C5.78906 34.3262 4.86328 33.6582 4.07812 32.8027C3.30469 31.9473 2.70117 30.9277 2.26758 29.7441C1.83398 28.5605 1.61719 27.2656 1.61719 25.8594C1.61719 24.4531 1.8457 23.1582 2.30273 21.9746C2.75977 20.791 3.38672 19.7773 4.18359 18.9336C4.98047 18.0781 5.91211 17.4102 6.97852 16.9297C8.04492 16.4492 9.1875 16.209 10.4062 16.209C11.5547 16.209 12.6387 16.4082 13.6582 16.8066C14.6895 17.2051 15.5918 17.8086 16.3652 18.6172H18.2109V21.6406H14.9062ZM32.1152 33.3125C31.4238 33.957 30.6562 34.4844 29.8125 34.8945C28.9805 35.3047 28.0312 35.5098 26.9648 35.5098C26.0742 35.5098 25.2539 35.3691 24.5039 35.0879C23.7656 34.8066 23.127 34.4258 22.5879 33.9453C22.0488 33.4531 21.627 32.8848 21.3223 32.2402C21.0293 31.5957 20.8828 30.9102 20.8828 30.1836C20.8828 29.4102 20.9941 28.7246 21.2168 28.127C21.4512 27.5293 21.7559 27.0137 22.1309 26.5801C22.5176 26.1348 22.9629 25.7656 23.4668 25.4727C23.9824 25.168 24.5156 24.9277 25.0664 24.752C25.6289 24.5645 26.1973 24.4355 26.7715 24.3652C27.3574 24.2832 27.9141 24.2422 28.4414 24.2422C29.2852 24.2422 29.9941 24.2715 30.5684 24.3301C31.1426 24.377 31.6641 24.4473 32.1328 24.541L32.1504 23.0469C32.1504 22.4023 32.0566 21.8457 31.8691 21.377C31.6816 20.8965 31.418 20.5039 31.0781 20.1992C30.7383 19.8828 30.3281 19.6484 29.8477 19.4961C29.3789 19.3438 28.8516 19.2676 28.2656 19.2676C27.7148 19.2676 27.1875 19.3086 26.6836 19.3906C26.1797 19.4609 25.7051 19.5605 25.2598 19.6895C24.8262 19.8066 24.4219 19.9473 24.0469 20.1113C23.6836 20.2637 23.373 20.4277 23.1152 20.6035L22.043 18.3359C22.4766 18.0547 22.9512 17.7969 23.4668 17.5625C23.9824 17.3164 24.5215 17.1113 25.084 16.9473C25.6582 16.7715 26.2383 16.6367 26.8242 16.543C27.4219 16.4375 28.0078 16.3848 28.582 16.3848C29.6367 16.3848 30.5859 16.5137 31.4297 16.7715C32.2734 17.0176 32.9883 17.4043 33.5742 17.9316C34.1602 18.459 34.6113 19.1328 34.9277 19.9531C35.2441 20.7617 35.4023 21.7344 35.4023 22.8711L35.3848 31.9766H37.4062V35H32.1152V33.3125ZM27.6855 32.7676C28.1191 32.7676 28.5527 32.7148 28.9863 32.6094C29.4199 32.5039 29.8301 32.3633 30.2168 32.1875C30.6035 32 30.9609 31.7891 31.2891 31.5547C31.6172 31.3086 31.8926 31.0566 32.1152 30.7988L32.1328 26.6855H28.3359C27.7031 26.6855 27.123 26.7559 26.5957 26.8965C26.0801 27.0371 25.6289 27.2422 25.2422 27.5117C24.8672 27.7812 24.5742 28.1152 24.3633 28.5137C24.1523 28.9121 24.0469 29.3691 24.0469 29.8848C24.0469 30.3652 24.1348 30.7871 24.3105 31.1504C24.4863 31.502 24.7324 31.8008 25.0488 32.0469C25.377 32.2812 25.7637 32.4629 26.209 32.5918C26.6543 32.709 27.1465 32.7676 27.6855 32.7676ZM40.957 16.7891H46.8984V31.9766H49.6406V35H40.9922V31.9766H43.5938V19.8125H40.957V16.7891ZM42.9785 10.3379C42.9785 10.0332 43.0371 9.74609 43.1543 9.47656C43.2832 9.19531 43.4473 8.95508 43.6465 8.75586C43.8574 8.54492 44.1035 8.38086 44.3848 8.26367C44.666 8.13477 44.9648 8.07031 45.2812 8.07031C45.5859 8.07031 45.873 8.13477 46.1426 8.26367C46.4238 8.38086 46.6641 8.54492 46.8633 8.75586C47.0742 8.95508 47.2383 9.19531 47.3555 9.47656C47.4844 9.74609 47.5488 10.0332 47.5488 10.3379C47.5488 10.6543 47.4844 10.9531 47.3555 11.2344C47.2383 11.5156 47.0742 11.7676 46.8633 11.9902C46.6641 12.2012 46.4238 12.3711 46.1426 12.5C45.873 12.6172 45.5859 12.6758 45.2812 12.6758C44.9648 12.6758 44.666 12.6172 44.3848 12.5C44.1035 12.3711 43.8574 12.2012 43.6465 11.9902C43.4473 11.7676 43.2832 11.5156 43.1543 11.2344C43.0371 10.9531 42.9785 10.6543 42.9785 10.3379ZM52.418 25.8945C52.4297 24.4531 52.6582 23.1406 53.1035 21.957C53.5605 20.7734 54.1934 19.7598 55.002 18.916C55.8105 18.0605 56.7715 17.4043 57.8848 16.9473C58.998 16.4902 60.2227 16.2617 61.5586 16.2617C62.9062 16.2617 64.1367 16.4902 65.25 16.9473C66.375 17.4043 67.3359 18.0547 68.1328 18.8984C68.9297 19.7305 69.5508 20.7383 69.9961 21.9219C70.4414 23.1055 70.6641 24.418 70.6641 25.8594C70.6641 27.2773 70.4414 28.584 69.9961 29.7793C69.5508 30.9629 68.9297 31.9824 68.1328 32.8379C67.3359 33.6934 66.375 34.3613 65.25 34.8418C64.1367 35.3105 62.9062 35.5449 61.5586 35.5449C60.1875 35.5449 58.9453 35.3105 57.832 34.8418C56.7188 34.373 55.7637 33.7168 54.9668 32.873C54.1699 32.0176 53.5488 30.998 53.1035 29.8145C52.6582 28.6309 52.4297 27.3242 52.418 25.8945ZM55.8809 25.8945C55.8809 26.9375 56.0273 27.8809 56.3203 28.7246C56.625 29.5684 57.0352 30.2891 57.5508 30.8867C58.0781 31.4727 58.6816 31.9297 59.3613 32.2578C60.0527 32.5742 60.7852 32.7324 61.5586 32.7324C62.3672 32.7324 63.1172 32.5742 63.8086 32.2578C64.5117 31.9414 65.1211 31.4902 65.6367 30.9043C66.1523 30.3066 66.5566 29.5859 66.8496 28.7422C67.1426 27.8984 67.2891 26.9492 67.2891 25.8945C67.2891 24.793 67.1426 23.8145 66.8496 22.959C66.5566 22.1035 66.1523 21.3887 65.6367 20.8145C65.1328 20.2402 64.5293 19.8066 63.8262 19.5137C63.123 19.2207 62.3672 19.0742 61.5586 19.0742C60.7852 19.0742 60.0527 19.2207 59.3613 19.5137C58.6816 19.8066 58.0781 20.2402 57.5508 20.8145C57.0352 21.3887 56.625 22.1035 56.3203 22.959C56.0273 23.8145 55.8809 24.793 55.8809 25.8945ZM73.2656 32.873C73.2656 32.5684 73.3242 32.2812 73.4414 32.0117C73.5703 31.7305 73.7402 31.4902 73.9512 31.291C74.1621 31.0801 74.4023 30.916 74.6719 30.7988C74.9531 30.6699 75.252 30.6055 75.5684 30.6055C75.873 30.6055 76.1602 30.6699 76.4297 30.7988C76.7109 30.916 76.9512 31.0801 77.1504 31.291C77.3613 31.4902 77.5254 31.7305 77.6426 32.0117C77.7715 32.2812 77.8359 32.5684 77.8359 32.873C77.8359 33.1895 77.7715 33.4883 77.6426 33.7695C77.5254 34.0508 77.3613 34.3027 77.1504 34.5254C76.9512 34.7363 76.7109 34.9004 76.4297 35.0176C76.1602 35.1465 75.873 35.2109 75.5684 35.2109C75.252 35.2109 74.9531 35.1465 74.6719 35.0176C74.4023 34.9004 74.1621 34.7363 73.9512 34.5254C73.7402 34.3027 73.5703 34.0508 73.4414 33.7695C73.3242 33.4883 73.2656 33.1895 73.2656 32.873ZM92.0918 7.64844H97.8398V31.9766H100.512V35H94.5703V33.5059C93.9844 34.1035 93.3047 34.5723 92.5312 34.9121C91.7578 35.2402 90.8789 35.4043 89.8945 35.4043C88.6641 35.4043 87.5156 35.1934 86.4492 34.7715C85.3945 34.3379 84.4746 33.7109 83.6895 32.8906C82.916 32.0586 82.3066 31.0449 81.8613 29.8496C81.4277 28.6426 81.2109 27.2656 81.2109 25.7188C81.2109 24.3125 81.4219 23.0352 81.8438 21.8867C82.2656 20.7266 82.8633 19.7422 83.6367 18.9336C84.4102 18.1133 85.3418 17.4805 86.4316 17.0352C87.5215 16.5781 88.7344 16.3496 90.0703 16.3496C90.9492 16.3496 91.752 16.4492 92.4785 16.6484C93.2051 16.8359 93.9023 17.1699 94.5703 17.6504V10.6719H92.0918V7.64844ZM90.3164 32.5566C91.2891 32.5566 92.1035 32.416 92.7598 32.1348C93.416 31.8418 94.0195 31.4082 94.5703 30.834V20.6387C93.9844 20.1465 93.3105 19.7891 92.5488 19.5664C91.7871 19.3438 91.0078 19.2324 90.2109 19.2324C89.4375 19.2324 88.7109 19.3789 88.0312 19.6719C87.3516 19.9531 86.7539 20.3691 86.2383 20.9199C85.7344 21.4707 85.3359 22.1445 85.043 22.9414C84.75 23.7383 84.6035 24.6523 84.6035 25.6836C84.6035 26.8086 84.7441 27.7988 85.0254 28.6543C85.3066 29.5098 85.6992 30.2305 86.2031 30.8164C86.707 31.3906 87.3105 31.8242 88.0137 32.1172C88.7168 32.4102 89.4844 32.5566 90.3164 32.5566ZM106.734 26.3164C106.734 26.832 106.77 27.3066 106.84 27.7402C106.922 28.1621 107.033 28.5664 107.174 28.9531C107.607 30.125 108.299 31.0098 109.248 31.6074C110.209 32.1934 111.293 32.4863 112.5 32.4863C113.449 32.4863 114.369 32.3574 115.26 32.0996C116.162 31.8301 117.105 31.4141 118.09 30.8516L119.408 33.084C118.213 33.9043 117.012 34.5137 115.805 34.9121C114.598 35.3105 113.344 35.5098 112.043 35.5098C110.812 35.5098 109.67 35.3047 108.615 34.8945C107.572 34.4844 106.67 33.875 105.908 33.0664C105.158 32.2578 104.566 31.25 104.133 30.043C103.711 28.8359 103.5 27.4297 103.5 25.8242C103.5 24.5234 103.682 23.2988 104.045 22.1504C104.408 20.9902 104.947 19.9824 105.662 19.127C106.389 18.2598 107.285 17.5742 108.352 17.0703C109.418 16.5664 110.66 16.3145 112.078 16.3145C113.449 16.3145 114.592 16.5254 115.506 16.9473C116.432 17.3574 117.182 17.9082 117.756 18.5996C118.342 19.2793 118.781 20.0586 119.074 20.9375C119.379 21.8164 119.59 22.7129 119.707 23.627C119.766 24.0723 119.801 24.5234 119.812 24.9805C119.836 25.4375 119.848 25.8828 119.848 26.3164H106.734ZM111.85 19.0566C111.088 19.0566 110.42 19.168 109.846 19.3906C109.283 19.6016 108.803 19.9121 108.404 20.3223C108.006 20.7207 107.684 21.2129 107.438 21.7988C107.203 22.3848 107.027 23.041 106.91 23.7676H116.35C116.303 23.0879 116.191 22.4609 116.016 21.8867C115.852 21.3125 115.594 20.8145 115.242 20.3926C114.891 19.9707 114.439 19.6426 113.889 19.4082C113.338 19.1738 112.658 19.0566 111.85 19.0566ZM122.906 16.7891H129.199V19.8125H127.494L131.994 32.3633L136.389 19.8125H135.281V16.7891H141.047V19.8125H139.482L133.523 35.2812H130.289L124.348 19.8125H122.906V16.7891Z" fill="white"/>
<path d="M151.319 23.614L154.881 26.3L153.528 30.6256C153.31 31.2965 153.307 32.0223 153.52 32.6949C153.734 33.3676 154.152 33.951 154.713 34.3581C155.264 34.7784 155.932 35.0035 156.617 35C157.302 34.9964 157.968 34.7644 158.515 34.3385L161.998 31.6917L165.482 34.3354C166.032 34.7532 166.696 34.9802 167.379 34.9836C168.062 34.9871 168.729 34.7668 169.283 34.3545C169.837 33.9422 170.25 33.3592 170.463 32.6891C170.676 32.0191 170.677 31.2966 170.468 30.6256L169.115 26.3L172.677 23.614C173.226 23.1992 173.635 22.6158 173.844 21.947C174.053 21.2782 174.052 20.5583 173.841 19.8901C173.63 19.2219 173.22 18.6396 172.67 18.2264C172.119 17.8131 171.456 17.59 170.776 17.589H166.4L165.073 13.3162C164.864 12.6436 164.454 12.0569 163.901 11.6406C163.348 11.2243 162.682 11 161.998 11C161.314 11 160.648 11.2243 160.095 11.6406C159.542 12.0569 159.132 12.6436 158.923 13.3162L157.596 17.589H153.224C152.544 17.59 151.881 17.8131 151.33 18.2264C150.78 18.6396 150.37 19.2219 150.159 19.8901C149.948 20.5583 149.947 21.2782 150.156 21.947C150.365 22.6158 150.774 23.1992 151.323 23.614H151.319Z" fill="white"/>
</svg>
