<svg width="81" height="21" viewBox="0 0 81 21" fill="none" xmlns="http://www.w3.org/2000/svg">
<path d="M8.28125 12.5781C8.00781 12.0898 7.65951 11.7318 7.23633 11.5039C6.81966 11.276 6.33464 11.1621 5.78125 11.1621C5.35807 11.1621 4.96094 11.25 4.58984 11.4258C4.21875 11.6016 3.89323 11.8522 3.61328 12.1777C3.33984 12.5033 3.12174 12.9004 2.95898 13.3691C2.80273 13.8314 2.72461 14.349 2.72461 14.9219C2.72461 15.4883 2.80273 15.9993 2.95898 16.4551C3.12174 16.9108 3.3431 17.3014 3.62305 17.627C3.90299 17.946 4.22526 18.1934 4.58984 18.3691C4.96094 18.5384 5.35807 18.623 5.78125 18.623C6.40625 18.623 6.94987 18.4733 7.41211 18.1738C7.87435 17.8678 8.24219 17.4219 8.51562 16.8359L10.0195 17.5781C9.82422 17.9948 9.58333 18.3691 9.29688 18.7012C9.01042 19.0332 8.6849 19.3164 8.32031 19.5508C7.96224 19.7852 7.5651 19.9642 7.12891 20.0879C6.69922 20.2181 6.24349 20.2832 5.76172 20.2832C5.05859 20.2832 4.40755 20.153 3.80859 19.8926C3.21615 19.6257 2.70182 19.2546 2.26562 18.7793C1.83594 18.304 1.50065 17.7376 1.25977 17.0801C1.01888 16.4225 0.898438 15.7031 0.898438 14.9219C0.898438 14.1406 1.02539 13.4212 1.2793 12.7637C1.5332 12.1061 1.88151 11.543 2.32422 11.0742C2.76693 10.599 3.28451 10.2279 3.87695 9.96094C4.4694 9.69401 5.10417 9.56055 5.78125 9.56055C6.41927 9.56055 7.02148 9.67122 7.58789 9.89258C8.16081 10.1139 8.66211 10.4492 9.0918 10.8984H10.1172V12.5781H8.28125ZM17.8418 19.0625C17.4577 19.4206 17.0312 19.7135 16.5625 19.9414C16.1003 20.1693 15.5729 20.2832 14.9805 20.2832C14.4857 20.2832 14.0299 20.2051 13.6133 20.0488C13.2031 19.8926 12.8483 19.681 12.5488 19.4141C12.2493 19.1406 12.015 18.8249 11.8457 18.4668C11.6829 18.1087 11.6016 17.7279 11.6016 17.3242C11.6016 16.8945 11.6634 16.5137 11.7871 16.1816C11.9173 15.8496 12.0866 15.5632 12.2949 15.3223C12.5098 15.0749 12.7572 14.8698 13.0371 14.707C13.3236 14.5378 13.6198 14.4043 13.9258 14.3066C14.2383 14.2025 14.554 14.1309 14.873 14.0918C15.1986 14.0462 15.5078 14.0234 15.8008 14.0234C16.2695 14.0234 16.6634 14.0397 16.9824 14.0723C17.3014 14.0983 17.5911 14.1374 17.8516 14.1895L17.8613 13.3594C17.8613 13.0013 17.8092 12.6921 17.7051 12.4316C17.6009 12.1647 17.4544 11.9466 17.2656 11.7773C17.0768 11.6016 16.849 11.4714 16.582 11.3867C16.3216 11.3021 16.0286 11.2598 15.7031 11.2598C15.3971 11.2598 15.1042 11.2826 14.8242 11.3281C14.5443 11.3672 14.2806 11.4225 14.0332 11.4941C13.7923 11.5592 13.5677 11.6374 13.3594 11.7285C13.1576 11.8132 12.985 11.9043 12.8418 12.002L12.2461 10.7422C12.487 10.5859 12.7507 10.4427 13.0371 10.3125C13.3236 10.1758 13.623 10.0618 13.9355 9.9707C14.2546 9.87305 14.5768 9.79818 14.9023 9.74609C15.2344 9.6875 15.5599 9.6582 15.8789 9.6582C16.4648 9.6582 16.9922 9.72982 17.4609 9.87305C17.9297 10.0098 18.3268 10.2246 18.6523 10.5176C18.9779 10.8105 19.2285 11.1849 19.4043 11.6406C19.5801 12.0898 19.668 12.6302 19.668 13.2617L19.6582 18.3203H20.7812V20H17.8418V19.0625ZM15.3809 18.7598C15.6217 18.7598 15.8626 18.7305 16.1035 18.6719C16.3444 18.6133 16.5723 18.5352 16.7871 18.4375C17.002 18.3333 17.2005 18.2161 17.3828 18.0859C17.5651 17.9492 17.7181 17.8092 17.8418 17.666L17.8516 15.3809H15.7422C15.3906 15.3809 15.0684 15.4199 14.7754 15.498C14.4889 15.5762 14.2383 15.6901 14.0234 15.8398C13.8151 15.9896 13.6523 16.1751 13.5352 16.3965C13.418 16.6178 13.3594 16.8717 13.3594 17.1582C13.3594 17.4251 13.4082 17.6595 13.5059 17.8613C13.6035 18.0566 13.7402 18.2227 13.916 18.3594C14.0983 18.4896 14.3132 18.5905 14.5605 18.6621C14.8079 18.7272 15.0814 18.7598 15.3809 18.7598ZM22.7539 9.88281H26.0547V18.3203H27.5781V20H22.7734V18.3203H24.2188V11.5625H22.7539V9.88281ZM23.877 6.29883C23.877 6.12956 23.9095 5.97005 23.9746 5.82031C24.0462 5.66406 24.1374 5.5306 24.248 5.41992C24.3652 5.30273 24.502 5.21159 24.6582 5.14648C24.8145 5.07487 24.9805 5.03906 25.1562 5.03906C25.3255 5.03906 25.485 5.07487 25.6348 5.14648C25.791 5.21159 25.9245 5.30273 26.0352 5.41992C26.1523 5.5306 26.2435 5.66406 26.3086 5.82031C26.3802 5.97005 26.416 6.12956 26.416 6.29883C26.416 6.47461 26.3802 6.64062 26.3086 6.79688C26.2435 6.95312 26.1523 7.0931 26.0352 7.2168C25.9245 7.33398 25.791 7.42839 25.6348 7.5C25.485 7.5651 25.3255 7.59766 25.1562 7.59766C24.9805 7.59766 24.8145 7.5651 24.6582 7.5C24.502 7.42839 24.3652 7.33398 24.248 7.2168C24.1374 7.0931 24.0462 6.95312 23.9746 6.79688C23.9095 6.64062 23.877 6.47461 23.877 6.29883ZM29.1211 14.9414C29.1276 14.1406 29.2546 13.4115 29.502 12.7539C29.7559 12.0964 30.1074 11.5332 30.5566 11.0645C31.0059 10.5892 31.5397 10.2246 32.1582 9.9707C32.7767 9.7168 33.457 9.58984 34.1992 9.58984C34.9479 9.58984 35.6315 9.7168 36.25 9.9707C36.875 10.2246 37.4089 10.5859 37.8516 11.0547C38.2943 11.5169 38.6393 12.0768 38.8867 12.7344C39.1341 13.3919 39.2578 14.1211 39.2578 14.9219C39.2578 15.7096 39.1341 16.4355 38.8867 17.0996C38.6393 17.7572 38.2943 18.3236 37.8516 18.7988C37.4089 19.2741 36.875 19.6452 36.25 19.9121C35.6315 20.1725 34.9479 20.3027 34.1992 20.3027C33.4375 20.3027 32.7474 20.1725 32.1289 19.9121C31.5104 19.6517 30.9798 19.2871 30.5371 18.8184C30.0944 18.3431 29.7493 17.7767 29.502 17.1191C29.2546 16.4616 29.1276 15.7357 29.1211 14.9414ZM31.0449 14.9414C31.0449 15.5208 31.1263 16.0449 31.2891 16.5137C31.4583 16.9824 31.6862 17.3828 31.9727 17.7148C32.2656 18.0404 32.6009 18.2943 32.9785 18.4766C33.3626 18.6523 33.7695 18.7402 34.1992 18.7402C34.6484 18.7402 35.0651 18.6523 35.4492 18.4766C35.8398 18.3008 36.1784 18.0501 36.4648 17.7246C36.7513 17.3926 36.9759 16.9922 37.1387 16.5234C37.3014 16.0547 37.3828 15.5273 37.3828 14.9414C37.3828 14.3294 37.3014 13.7858 37.1387 13.3105C36.9759 12.8353 36.7513 12.4382 36.4648 12.1191C36.1849 11.8001 35.8496 11.5592 35.459 11.3965C35.0684 11.2337 34.6484 11.1523 34.1992 11.1523C33.7695 11.1523 33.3626 11.2337 32.9785 11.3965C32.6009 11.5592 32.2656 11.8001 31.9727 12.1191C31.6862 12.4382 31.4583 12.8353 31.2891 13.3105C31.1263 13.7858 31.0449 14.3294 31.0449 14.9414ZM40.7031 18.8184C40.7031 18.6491 40.7357 18.4896 40.8008 18.3398C40.8724 18.1836 40.9668 18.0501 41.084 17.9395C41.2012 17.8223 41.3346 17.7311 41.4844 17.666C41.6406 17.5944 41.8066 17.5586 41.9824 17.5586C42.1517 17.5586 42.3112 17.5944 42.4609 17.666C42.6172 17.7311 42.7507 17.8223 42.8613 17.9395C42.9785 18.0501 43.0697 18.1836 43.1348 18.3398C43.2064 18.4896 43.2422 18.6491 43.2422 18.8184C43.2422 18.9941 43.2064 19.1602 43.1348 19.3164C43.0697 19.4727 42.9785 19.6126 42.8613 19.7363C42.7507 19.8535 42.6172 19.9447 42.4609 20.0098C42.3112 20.0814 42.1517 20.1172 41.9824 20.1172C41.8066 20.1172 41.6406 20.0814 41.4844 20.0098C41.3346 19.9447 41.2012 19.8535 41.084 19.7363C40.9668 19.6126 40.8724 19.4727 40.8008 19.3164C40.7357 19.1602 40.7031 18.9941 40.7031 18.8184ZM51.1621 4.80469H54.3555V18.3203H55.8398V20H52.5391V19.1699C52.2135 19.502 51.8359 19.7624 51.4062 19.9512C50.9766 20.1335 50.4883 20.2246 49.9414 20.2246C49.2578 20.2246 48.6198 20.1074 48.0273 19.873C47.4414 19.6322 46.9303 19.2839 46.4941 18.8281C46.0645 18.3659 45.7259 17.8027 45.4785 17.1387C45.2376 16.4681 45.1172 15.7031 45.1172 14.8438C45.1172 14.0625 45.2344 13.3529 45.4688 12.7148C45.7031 12.0703 46.0352 11.5234 46.4648 11.0742C46.8945 10.6185 47.4121 10.2669 48.0176 10.0195C48.623 9.76562 49.2969 9.63867 50.0391 9.63867C50.5273 9.63867 50.9733 9.69401 51.377 9.80469C51.7806 9.90885 52.168 10.0944 52.5391 10.3613V6.48438H51.1621V4.80469ZM50.1758 18.6426C50.7161 18.6426 51.1686 18.5645 51.5332 18.4082C51.8978 18.2454 52.2331 18.0046 52.5391 17.6855V12.0215C52.2135 11.748 51.8392 11.5495 51.416 11.4258C50.9928 11.3021 50.5599 11.2402 50.1172 11.2402C49.6875 11.2402 49.2839 11.3216 48.9062 11.4844C48.5286 11.6406 48.1966 11.8717 47.9102 12.1777C47.6302 12.4837 47.4089 12.8581 47.2461 13.3008C47.0833 13.7435 47.002 14.2513 47.002 14.8242C47.002 15.4492 47.0801 15.9993 47.2363 16.4746C47.3926 16.9499 47.6107 17.3503 47.8906 17.6758C48.1706 17.9948 48.5059 18.2357 48.8965 18.3984C49.2871 18.5612 49.7135 18.6426 50.1758 18.6426ZM59.2969 15.1758C59.2969 15.4622 59.3164 15.7259 59.3555 15.9668C59.401 16.2012 59.4629 16.4258 59.541 16.6406C59.7819 17.2917 60.166 17.7832 60.6934 18.1152C61.2272 18.4408 61.8294 18.6035 62.5 18.6035C63.0273 18.6035 63.5384 18.5319 64.0332 18.3887C64.5345 18.2389 65.0586 18.0078 65.6055 17.6953L66.3379 18.9355C65.6738 19.3913 65.0065 19.7298 64.3359 19.9512C63.6654 20.1725 62.9688 20.2832 62.2461 20.2832C61.5625 20.2832 60.9277 20.1693 60.3418 19.9414C59.7624 19.7135 59.2611 19.375 58.8379 18.9258C58.4212 18.4766 58.0924 17.9167 57.8516 17.2461C57.6172 16.5755 57.5 15.7943 57.5 14.9023C57.5 14.1797 57.6009 13.4993 57.8027 12.8613C58.0046 12.2168 58.304 11.6569 58.7012 11.1816C59.1048 10.6999 59.6029 10.319 60.1953 10.0391C60.7878 9.75911 61.4779 9.61914 62.2656 9.61914C63.0273 9.61914 63.6621 9.73633 64.1699 9.9707C64.6842 10.1986 65.1009 10.5046 65.4199 10.8887C65.7454 11.2663 65.9896 11.6992 66.1523 12.1875C66.3216 12.6758 66.4388 13.1738 66.5039 13.6816C66.5365 13.929 66.556 14.1797 66.5625 14.4336C66.5755 14.6875 66.582 14.9349 66.582 15.1758H59.2969ZM62.1387 11.1426C61.7155 11.1426 61.3444 11.2044 61.0254 11.3281C60.7129 11.4453 60.446 11.6178 60.2246 11.8457C60.0033 12.0671 59.8242 12.3405 59.6875 12.666C59.5573 12.9915 59.4596 13.3561 59.3945 13.7598H64.6387C64.6126 13.3822 64.5508 13.0339 64.4531 12.7148C64.362 12.3958 64.2188 12.1191 64.0234 11.8848C63.8281 11.6504 63.5775 11.4681 63.2715 11.3379C62.9655 11.2077 62.5879 11.1426 62.1387 11.1426ZM68.2812 9.88281H71.7773V11.5625H70.8301L73.3301 18.5352L75.7715 11.5625H75.1562V9.88281H78.3594V11.5625H77.4902L74.1797 20.1562H72.3828L69.082 11.5625H68.2812V9.88281Z" fill="white"/>
</svg>
